<?xml version="1.0" encoding="UTF-8" standalone="no"?>
<!-- Created with Inkscape (http://www.inkscape.org/) -->
<svg xmlns:dc="http://purl.org/dc/elements/1.1/" xmlns:cc="http://creativecommons.org/ns#" xmlns:rdf="http://www.w3.org/1999/02/22-rdf-syntax-ns#" xmlns:svg="http://www.w3.org/2000/svg" xmlns="http://www.w3.org/2000/svg" xmlns:xlink="http://www.w3.org/1999/xlink" xmlns:sodipodi="http://sodipodi.sourceforge.net/DTD/sodipodi-0.dtd" xmlns:inkscape="http://www.inkscape.org/namespaces/inkscape" width="200" height="200" id="svg2" version="1.1" inkscape:version="0.48.2 r9819" sodipodi:docname="Icon_math.svg" inkscape:export-filename="/home/nx/Documents/rw/wigobuttons/wigocp_redone50.png" inkscape:export-xdpi="22.5" inkscape:export-ydpi="22.5" style="display:inline">
  <defs id="defs4">
    <linearGradient id="linearGradient3684">
      <stop style="stop-color:#000000;stop-opacity:1;" offset="0" id="stop3686"/>
      <stop id="stop3692" offset="0.89795917" style="stop-color:#000000;stop-opacity:0.86666667;"/>
      <stop style="stop-color:#000000;stop-opacity:0;" offset="1" id="stop3688"/>
    </linearGradient>
    <radialGradient r="97.496925" fy="188.21428" fx="236.78572" cy="188.21428" cx="236.78572" gradientUnits="userSpaceOnUse" id="radialGradient3884" xlink:href="#linearGradient3684" inkscape:collect="always"/>
  </defs>
  <sodipodi:namedview id="base" pagecolor="#ffffff" bordercolor="#666666" borderopacity="1.0" inkscape:pageopacity="0" inkscape:pageshadow="2" inkscape:zoom="1.4142136" inkscape:cx="98.3919" inkscape:cy="107.88492" inkscape:document-units="px" inkscape:current-layer="layer1" showgrid="false" inkscape:window-width="1366" inkscape:window-height="706" inkscape:window-x="-8" inkscape:window-y="-8" inkscape:window-maximized="1" showguides="true" inkscape:guide-bbox="true" inkscape:snap-object-midpoints="true"/>
  <metadata id="metadata7">
    <rdf:RDF>
      <cc:Work rdf:about="">
        <dc:format>image/svg+xml</dc:format>
        <dc:type rdf:resource="http://purl.org/dc/dcmitype/StillImage"/>
        <dc:title/>
      </cc:Work>
    </rdf:RDF>
  </metadata>
  <g inkscape:label="Layer 1" inkscape:groupmode="layer" id="layer1" transform="translate(0,-852.36218)" style="display:inline">
    <path sodipodi:type="arc" style="fill:url(#radialGradient3884);fill-opacity:1;stroke:none;display:inline" id="path3674" sodipodi:cx="236.78572" sodipodi:cy="188.21428" sodipodi:rx="97.496925" sodipodi:ry="97.496925" d="m 334.28265,188.21428 c 0,53.84606 -43.65086,97.49692 -97.49693,97.49692 -53.84606,0 -97.49692,-43.65086 -97.49692,-97.49692 0,-53.84607 43.65086,-97.496926 97.49692,-97.496926 53.84607,0 97.49693,43.650856 97.49693,97.496926 z" transform="translate(-134.78572,766.1479)"/>
    <path transform="translate(-136.78572,764.1479)" d="m 324.92078,188.21428 c 0,48.67565 -39.45941,88.13506 -88.13506,88.13506 -48.67565,0 -88.13506,-39.45941 -88.13506,-88.13506 0,-48.67565 39.45941,-88.13506 88.13506,-88.13506 48.67565,0 88.13506,39.45941 88.13506,88.13506 z" sodipodi:ry="88.135063" sodipodi:rx="88.135063" sodipodi:cy="188.21428" sodipodi:cx="236.78572" id="path3625" style="fill:#009761;fill-opacity:1;stroke:#ffffff;stroke-width:8;stroke-miterlimit:4;stroke-opacity:1;stroke-dasharray:none" sodipodi:type="arc"/>
    <g id="g3700" transform="translate(9.340823,830.10736)">
      <path id="path3666" d="" style="fill:#000000" inkscape:connector-curvature="0"/>
      <path id="path3664" d="" style="fill:#000000" inkscape:connector-curvature="0"/>
    </g>
    <g style="font-size:28.01132774px;font-style:normal;font-variant:normal;font-weight:normal;font-stretch:normal;line-height:125%;letter-spacing:0px;word-spacing:0px;fill:#ffffff;fill-opacity:1;stroke:none;font-family:Cambria Math;-inkscape-font-specification:Cambria Math" id="text3834">
      <path d="m 70.21407,997.20684 -0.62916,2.65342 -2.420901,0 0.62916,-2.65342 z m -4.404125,9.21856 c 0.209717,-0.9118 0.314577,-1.5957 0.314581,-2.0516 -4e-6,-0.4103 -0.09803,-0.6884 -0.294064,-0.8343 -0.196046,-0.1459 -0.581293,-0.228 -1.155741,-0.2462 l 0.150451,-0.7249 3.337287,-0.1231 0.806967,0 -1.969546,8.7809 c -0.200606,0.8936 -0.300907,1.5683 -0.300903,2.0242 -4e-6,0.3648 0.05926,0.6292 0.177806,0.7933 0.118533,0.1642 0.305457,0.2462 0.560774,0.2462 0.273543,0 0.565327,-0.1117 0.875354,-0.3351 0.310015,-0.2234 0.747691,-0.6497 1.313031,-1.2788 l 0.779612,0.7659 c -0.893598,0.9392 -1.618499,1.5775 -2.174708,1.9149 -0.556219,0.3373 -1.18082,0.506 -1.873804,0.506 -0.592691,0 -1.066841,-0.2165 -1.422451,-0.6497 -0.355614,-0.4331 -0.53342,-0.987 -0.533418,-1.6618 -2e-6,-0.6929 0.127653,-1.5774 0.382967,-2.6534 z" style="" id="path3060"/>
      <path d="m 73.387228,1005.7142 0,-1.8191 16.850565,0 0,1.8191 z m 0,5.6761 0,-1.8191 16.850565,0 0,1.8191 z" style="" id="path3062"/>
      <path d="m 101.80888,1012.0742 c -1e-5,0.5288 0.0296,0.9278 0.0889,1.1968 0.0593,0.2689 0.16412,0.4878 0.31458,0.6565 0.15044,0.1687 0.367,0.3009 0.64968,0.3966 0.28265,0.096 0.63827,0.1687 1.06684,0.2189 0.42854,0.05 0.99388,0.084 1.696,0.1025 l 0,0.9985 -10.107608,0 0,-0.9985 c 1.012124,-0.046 1.734746,-0.1071 2.167869,-0.1846 0.433112,-0.077 0.763649,-0.1938 0.991612,-0.3488 0.22795,-0.155 0.394358,-0.3738 0.499225,-0.6565 0.104853,-0.2827 0.157283,-0.7431 0.15729,-1.3814 l 0,-11.0924 c -7e-6,-0.3647 -0.06383,-0.6314 -0.191483,-0.8001 -0.127663,-0.1687 -0.314587,-0.25304 -0.560774,-0.25306 -0.291791,2e-5 -0.706672,0.15046 -1.244644,0.45136 -0.537983,0.3009 -1.203616,0.7158 -1.996901,1.2446 l -0.601806,-1.0531 6.40103,-3.81602 0.75225,0 c -0.0547,0.87538 -0.0821,2.0881 -0.0821,3.63822 z" style="" id="path3064"/>
    </g>
    <g style="font-size:92.8864212px;font-style:normal;font-weight:normal;line-height:125%;letter-spacing:0px;word-spacing:0px;fill:#ffffff;fill-opacity:1;stroke:none;font-family:Times New Roman;-inkscape-font-specification:Times New Roman" id="text3842">
      <path d="m 67.842091,910.7589 22.087738,33.51712 0,3.44695 -24.763665,34.01603 29.843391,0 c 1.874616,-1e-5 3.288169,-0.12096 4.240664,-0.36284 0.952401,-0.2419 1.768781,-0.6123 2.449151,-1.11119 0.68027,-0.49891 1.30012,-1.19435 1.85955,-2.08632 0.55932,-0.89198 1.09601,-2.12411 1.61009,-3.6964 0.51396,-1.5723 0.99775,-3.62838 1.45135,-6.16824 l 5.3065,0 -1.31529,22.13309 -57.509756,0 0,-2.53986 28.029204,-38.50614 -26.305725,-40.77387 0,-2.58522 56.013047,0 0,20.18284 -4.8983,0 c -0.75597,-2.87242 -1.47408,-5.21574 -2.15435,-7.02998 -0.68037,-1.81413 -1.37581,-3.25037 -2.08632,-4.3087 -0.7106,-1.05822 -1.43628,-1.86704 -2.177022,-2.42647 -0.740841,-0.55932 -1.59502,-0.98263 -2.562541,-1.26993 -0.967611,-0.28719 -2.252659,-0.43081 -3.855149,-0.43087 z" style="font-variant:normal;font-stretch:normal;font-family:Cambria Math;-inkscape-font-specification:Cambria Math" id="path3047"/>
    </g>
    <g style="font-size:83.38479614px;font-style:normal;font-variant:normal;font-weight:normal;font-stretch:normal;line-height:125%;letter-spacing:0px;word-spacing:0px;fill:#ffffff;fill-opacity:1;stroke:none;display:inline;font-family:Cambria Math;-inkscape-font-specification:Cambria Math" id="text3834-1">
      <path d="m 149.78834,918.52846 -1.8729,7.89876 -7.2066,0 1.8729,-7.89876 z m -13.11031,27.44207 c 0.62429,-2.71432 0.93644,-4.75008 0.93645,-6.10728 -10e-6,-1.22143 -0.2918,-2.0493 -0.87537,-2.48363 -0.5836,-0.43426 -1.73041,-0.67855 -3.44044,-0.73288 l 0.44787,-2.1579 9.93451,-0.36644 2.4022,0 -5.86299,26.13918 c -0.59717,2.66007 -0.89575,4.66869 -0.89574,6.02585 -1e-5,1.08575 0.17642,1.87291 0.5293,2.36149 0.35285,0.48858 0.9093,0.73287 1.66933,0.73287 0.81429,0 1.68288,-0.3325 2.60577,-0.99752 0.92286,-0.66501 2.22575,-1.93397 3.90866,-3.80688 l 2.32077,2.28006 c -2.66008,2.79578 -4.81799,4.69582 -6.47372,5.70013 -1.65577,1.00431 -3.51509,1.50646 -5.57799,1.50646 -1.76433,0 -3.17579,-0.64466 -4.23438,-1.93397 -1.0586,-1.28932 -1.5879,-2.93828 -1.58789,-4.9469 -1e-5,-2.0629 0.38,-4.69582 1.14002,-7.89876 z" style="" id="path3057"/>
    </g>
    <g style="font-size:28.01132774px;font-style:normal;font-variant:normal;font-weight:normal;font-stretch:normal;line-height:125%;letter-spacing:0px;word-spacing:0px;fill:#ffffff;fill-opacity:1;stroke:none;display:inline;font-family:Cambria Math;-inkscape-font-specification:Cambria Math" id="text3834-4">
      <path d="m 71.831916,896.90688 c -1e-5,0.52886 0.02962,0.92779 0.0889,1.19677 0.05926,0.269 0.164119,0.48783 0.31458,0.65652 0.150442,0.16869 0.367,0.3009 0.649677,0.39664 0.282656,0.0958 0.638268,0.16869 1.066838,0.21884 0.428546,0.0502 0.993879,0.0844 1.695998,0.10258 l 0,0.99845 -10.107603,0 0,-0.99845 c 1.012124,-0.0456 1.734746,-0.10713 2.167869,-0.18464 0.433112,-0.0775 0.763649,-0.19376 0.991612,-0.34877 0.22795,-0.15501 0.394358,-0.37385 0.499225,-0.65652 0.104853,-0.28266 0.157283,-0.74314 0.15729,-1.38142 l 0,-11.09237 c -7e-6,-0.36472 -0.06384,-0.63143 -0.191483,-0.80013 -0.127663,-0.16868 -0.314587,-0.25302 -0.560774,-0.25304 -0.291791,2e-5 -0.706672,0.15047 -1.244644,0.45136 -0.537983,0.30092 -1.203616,0.7158 -1.996901,1.24464 l -0.601806,-1.05316 6.401026,-3.81599 0.752257,0 c -0.05472,0.87537 -0.08207,2.0881 -0.08206,3.63819 z" style="" id="path3050"/>
      <path d="m 85.46829,900.69552 c -1.969552,0 -3.435313,-0.77505 -4.397286,-2.32516 -0.96198,-1.5501 -1.442968,-3.90261 -1.442966,-7.05754 -2e-6,-1.67775 0.14817,-3.12755 0.444515,-4.34941 0.296342,-1.22184 0.711223,-2.23168 1.244644,-3.02955 0.533415,-0.79783 1.173973,-1.38824 1.921676,-1.77122 0.747692,-0.38295 1.563776,-0.57443 2.448256,-0.57445 1.996891,2e-5 3.483168,0.77051 4.458834,2.31148 0.975642,1.541 1.463469,3.87072 1.463482,6.98915 -1.3e-5,3.22788 -0.522034,5.66929 -1.566063,7.32425 -1.044053,1.65497 -2.569082,2.48245 -4.575092,2.48245 z m -3.173158,-9.79302 c -5e-6,2.97256 0.275823,5.15411 0.827483,6.54464 0.551649,1.39054 1.406486,2.0858 2.564514,2.0858 1.103301,0 1.921665,-0.65423 2.455094,-1.9627 0.533408,-1.30847 0.800117,-3.33501 0.800128,-6.07961 -1.1e-5,-2.09719 -0.136785,-3.79547 -0.410322,-5.09484 -0.273559,-1.29933 -0.654246,-2.23168 -1.142063,-2.79702 -0.487837,-0.56532 -1.078244,-0.84799 -1.771224,-0.848 -0.629168,10e-6 -1.155748,0.18694 -1.579741,0.56077 -0.424005,0.37387 -0.76594,0.91184 -1.025805,1.61393 -0.259876,0.70213 -0.444521,1.55696 -0.553935,2.56452 -0.109424,1.00758 -0.164134,2.14508 -0.164129,3.41251 z" style="" id="path3052"/>
      <path d="m 101.00582,900.69552 c -1.969548,0 -3.435309,-0.77505 -4.397282,-2.32516 -0.96198,-1.5501 -1.442968,-3.90261 -1.442967,-7.05754 -10e-7,-1.67775 0.14817,-3.12755 0.444516,-4.34941 0.296341,-1.22184 0.711222,-2.23168 1.244644,-3.02955 0.533415,-0.79783 1.173973,-1.38824 1.921676,-1.77122 0.747692,-0.38295 1.563773,-0.57443 2.448253,-0.57445 1.99689,2e-5 3.48317,0.77051 4.45884,2.31148 0.97564,1.541 1.46347,3.87072 1.46348,6.98915 -1e-5,3.22788 -0.52204,5.66929 -1.56606,7.32425 -1.04406,1.65497 -2.56909,2.48245 -4.5751,2.48245 z m -3.173154,-9.79302 c -5e-6,2.97256 0.275823,5.15411 0.827483,6.54464 0.551649,1.39054 1.406491,2.0858 2.564511,2.0858 1.1033,0 1.92167,-0.65423 2.4551,-1.9627 0.5334,-1.30847 0.80011,-3.33501 0.80012,-6.07961 -10e-6,-2.09719 -0.13678,-3.79547 -0.41032,-5.09484 -0.27356,-1.29933 -0.65424,-2.23168 -1.14206,-2.79702 -0.48784,-0.56532 -1.07824,-0.84799 -1.77122,-0.848 -0.62917,10e-6 -1.15575,0.18694 -1.579745,0.56077 -0.424005,0.37387 -0.76594,0.91184 -1.025806,1.61393 -0.259875,0.70213 -0.44452,1.55696 -0.553935,2.56452 -0.109423,1.00758 -0.164133,2.14508 -0.164128,3.41251 z" style="" id="path3054"/>
    </g>
  </g>
</svg>